<?xml version="1.0" encoding="iso-8859-1"?>
<!-- Generator: Adobe Illustrator 16.0.0, SVG Export Plug-In . SVG Version: 6.00 Build 0)  -->
<!DOCTYPE svg PUBLIC "-//W3C//DTD SVG 1.1//EN" "http://www.w3.org/Graphics/SVG/1.1/DTD/svg11.dtd">
<svg version="1.1" xmlns="http://www.w3.org/2000/svg" xmlns:xlink="http://www.w3.org/1999/xlink" x="0px" y="0px" width="700px"
	 height="700px" viewBox="0 0 700 700" style="enable-background:new 0 0 700 700;" xml:space="preserve">
<g id="&#x5716;&#x5C64;_1">
	<g style="display:none;">
		<path style="display:inline;" d="M381.629,434.417c0,13.254-10.745,24-24,24H257.63c-13.255,0-24-10.746-24-24v-210
			c0-13.255,10.745-24,24-24h99.999c13.255,0,24,10.745,24,24V434.417z"/>
		<path style="display:inline;fill:#FFFFFF;" d="M365.63,432.417c0,4.418-3.582,8-8,8h-100c-4.418,0-8-3.582-8-8v-208
			c0-4.418,3.582-8,8-8h100c4.418,0,8,3.582,8,8V432.417z"/>
		<rect x="243.629" y="231.25" style="display:inline;" width="128" height="16"/>
		<rect x="243.25" y="410.5" style="display:inline;" width="128" height="16"/>
	</g>
	<path style="display:none;" d="M452.208,406.224l-32.946-36.205c-6.517-6.52-17.138-6.527-23.719,0.052
		c-2.086,2.086-3.503,4.584-4.239,7.245c-6.554-5.012-16.01-4.52-22.047,1.518c-2.077,2.086-3.494,4.582-4.25,7.237
		c-6.553-5.013-16-4.521-22.035,1.525c-2.042,2.04-3.444,4.485-4.205,7.07l-15.527-15.526c-6.52-6.52-17.139-6.528-23.719,0.053
		c-6.528,6.52-6.528,17.139,0,23.666l59.65,59.651l-35.38,5.555c-9.56,1.367-16.772,9.676-16.772,19.34
		c0,7.245,5.898,13.145,13.145,13.145h82.618c12.871,0,24.973-5.015,34.076-14.117l13.783-13.783
		c9.095-9.086,14.096-21.179,14.096-34.032C464.739,426.611,460.286,415.109,452.208,406.224L452.208,406.224z M444.445,466.455
		l-13.784,13.781c-7.446,7.448-17.347,11.548-27.88,11.548h-82.618c-2.419,0-4.383-1.962-4.383-4.38
		c0-5.328,3.979-9.911,9.305-10.682l43.943-6.905c1.629-0.255,2.969-1.401,3.486-2.971c0.51-1.56,0.097-3.284-1.068-4.448
		l-65.742-65.743c-3.11-3.109-3.11-8.166,0.053-11.331c1.56-1.549,3.602-2.33,5.643-2.33c2.042,0,4.083,0.781,5.643,2.339
		l43.837,43.838c1.708,1.708,4.485,1.708,6.195,0c0.85-0.859,1.279-1.979,1.279-3.102s-0.43-2.242-1.279-3.094l-17.901-17.9
		c-3.111-3.11-3.111-8.168,0.052-11.329c3.102-3.103,8.177-3.103,11.275,0l17.902,17.9c1.708,1.709,4.486,1.709,6.195,0
		c0.85-0.857,1.279-1.979,1.279-3.103c0-1.121-0.43-2.242-1.243-3.058l-9.14-9.138c-3.11-3.11-3.11-8.167,0.053-11.332
		c3.102-3.1,8.177-3.1,11.277,0l9.139,9.14c0.018,0.011,0.01,0.011,0.01,0.011l0.017,0.016l0.009,0.01h0.009
		c0.008,0,0.008,0.008,0.008,0.008c1.716,1.62,4.423,1.596,6.107-0.088c1.707-1.709,1.707-4.486,0-6.195l-0.378-0.375
		c-1.506-1.508-2.339-3.515-2.339-5.643c0-2.131,0.825-4.127,2.383-5.688c3.112-3.1,8.167-3.093,11.139-0.147l32.805,36.057
		c6.598,7.265,10.243,16.673,10.243,26.496C455.975,449.132,451.885,459.015,444.445,466.455L444.445,466.455z M444.445,466.455"/>
	<g>
		<path style="fill:none;" d="M445.733,412.12l-32.805-36.057c-2.972-2.945-8.026-2.952-11.139,0.147
			c-1.558,1.562-2.383,3.558-2.383,5.688c0,2.128,0.833,4.135,2.339,5.643l0.378,0.375c1.707,1.709,1.707,4.486,0,6.195
			c-1.685,1.684-4.392,1.708-6.107,0.088c0,0,0-0.008-0.008-0.008H396l-0.009-0.01l-0.017-0.016c0,0,0.008,0-0.01-0.011l-9.139-9.14
			c-1.438-1.438-3.303-2.2-5.197-2.304v19.768l3.007,3.006c0.813,0.815,1.243,1.937,1.243,3.058c0,1.124-0.43,2.245-1.279,3.103
			c-0.822,0.822-1.892,1.238-2.971,1.27v21.501c0,10.319-6.515,19.117-15.656,22.507l5.475,5.475
			c1.165,1.164,1.578,2.889,1.068,4.448c-0.518,1.569-1.857,2.716-3.486,2.971l-43.943,6.905c-5.327,0.771-9.305,5.354-9.305,10.682
			c0,2.418,1.964,4.38,4.383,4.38h82.618c10.533,0,20.434-4.1,27.88-11.548l13.784-13.781c7.439-7.44,11.529-17.323,11.531-27.839
			C455.977,428.793,452.331,419.385,445.733,412.12z"/>
		<path d="M257.629,440.417c-4.418,0-8-3.582-8-8V426.5h73.532l-16-16h-57.533V247.25h116v137.037
			c0.816-1.985,2.022-3.843,3.627-5.454c3.412-3.412,7.917-5.051,12.372-4.927v-149.49c0-13.255-10.745-24-24-24H257.63
			c-13.255,0-24,10.745-24,24v210c0,13.254,10.745,24,24,24h97.448l-18-18H257.629z M249.629,224.417c0-4.418,3.582-8,8-8h100
			c4.418,0,8,3.582,8,8v6.833h-116V224.417z"/>
		<path d="M452.208,406.224l-32.946-36.205c-6.517-6.52-17.138-6.527-23.719,0.052c-2.086,2.086-3.503,4.584-4.239,7.245
			c-2.85-2.179-6.248-3.314-9.675-3.409c-4.455-0.124-8.96,1.515-12.372,4.927c-1.604,1.611-2.811,3.469-3.627,5.454
			c-0.24,0.585-0.451,1.18-0.623,1.783c-6.553-5.013-16-4.521-22.035,1.525c-2.042,2.04-3.444,4.485-4.205,7.07l-15.527-15.526
			c-6.52-6.52-17.139-6.528-23.719,0.053c-6.528,6.52-6.528,17.139,0,23.666l7.642,7.642l16,16l13.917,13.917l18,18l4.093,4.093
			l-35.38,5.555c-9.56,1.367-16.772,9.676-16.772,19.34c0,7.245,5.898,13.145,13.145,13.145h82.618
			c12.871,0,24.973-5.015,34.076-14.117l13.783-13.783c9.095-9.086,14.096-21.179,14.096-34.032
			C464.739,426.611,460.286,415.109,452.208,406.224z M444.445,466.455l-13.784,13.781c-7.446,7.448-17.347,11.548-27.88,11.548
			h-82.618c-2.419,0-4.383-1.962-4.383-4.38c0-5.328,3.979-9.911,9.305-10.682l43.943-6.905c1.629-0.255,2.969-1.401,3.486-2.971
			c0.51-1.56,0.097-3.284-1.068-4.448l-5.475-5.475l-16.506-16.507L335.549,426.5l-16-16l-13.845-13.845
			c-3.11-3.109-3.11-8.166,0.053-11.331c1.56-1.549,3.602-2.33,5.643-2.33c2.042,0,4.083,0.781,5.643,2.339L342.21,410.5l16,16
			l2.671,2.671c1.282,1.282,3.166,1.602,4.749,0.959c0.526-0.213,1.02-0.533,1.446-0.959c0.85-0.859,1.279-1.979,1.279-3.102
			s-0.43-2.242-1.279-3.094L354.6,410.5l-5.425-5.425c-3.111-3.11-3.111-8.168,0.052-11.329c3.102-3.103,8.177-3.103,11.275,0
			l5.128,5.127l12.774,12.773c0.887,0.887,2.061,1.303,3.225,1.27c1.079-0.031,2.148-0.447,2.971-1.27
			c0.85-0.857,1.279-1.979,1.279-3.103c0-1.121-0.43-2.242-1.243-3.058l-3.007-3.006l-6.133-6.132
			c-3.11-3.11-3.11-8.167,0.053-11.332c1.662-1.661,3.892-2.424,6.08-2.304c1.895,0.104,3.759,0.865,5.197,2.304l9.139,9.14
			c0.018,0.011,0.01,0.011,0.01,0.011l0.017,0.016l0.009,0.01h0.009c0.008,0,0.008,0.008,0.008,0.008
			c1.716,1.62,4.423,1.596,6.107-0.088c1.707-1.709,1.707-4.486,0-6.195l-0.378-0.375c-1.506-1.508-2.339-3.515-2.339-5.643
			c0-2.131,0.825-4.127,2.383-5.688c3.112-3.1,8.167-3.093,11.139-0.147l32.805,36.057c6.598,7.265,10.243,16.673,10.243,26.496
			C455.975,449.132,451.885,459.015,444.445,466.455z"/>
	</g>
	<g>
		<path d="M307.626,266.136c-2.944,0-5.334,2.391-5.334,5.334v85.331c0,2.944,2.39,5.335,5.334,5.335
			c2.942,0,5.332-2.391,5.332-5.335v-85.331C312.958,268.527,310.568,266.136,307.626,266.136L307.626,266.136z M307.626,266.136"/>
		<path d="M332.733,289.036L311.4,267.704c-2.08-2.081-5.461-2.081-7.541,0l-21.333,21.333c-2.08,2.081-2.08,5.461,0,7.542
			c2.081,2.081,5.461,2.081,7.542,0l17.558-17.565l17.556,17.565c1.047,1.036,2.412,1.558,3.776,1.558
			c1.365,0,2.73-0.522,3.777-1.558C334.813,294.498,334.813,291.117,332.733,289.036L332.733,289.036z M332.733,289.036"/>
	</g>
</g>
<g id="&#x5716;&#x5C64;_3">
	<path style="display:none;" d="M431.81,419.116c0-14.393-11.727-26.119-26.145-26.119c-1.176,0-2.348,0.08-3.508,0.23
		c-4.793-5.539-11.867-9.047-19.75-9.047c-0.355,0-0.707,0.023-1.059,0.039V224.333c0-13.234-10.766-24-24-24h-99.016
		c-13.234,0-24,10.766-24,24v210.421c0,13.236,10.766,24,24,24h41.535c2.305,7.072,6,14.008,11.86,20.035
		c12.05,12.395,30.328,18.422,55.878,18.422c11.891,0,22.402-1.883,31.242-5.6c8.523-3.582,15.586-8.865,20.988-15.697
		c7.852-9.934,12.004-23.121,12.004-38.139L431.81,419.116z M258.333,216.333h99.016c4.41,0,8,3.59,8,8v6.618H250.333v-6.618
		C250.333,219.923,253.923,216.333,258.333,216.333L258.333,216.333z M258.333,442.755c-4.41,0-8-3.586-8-8v-6.613h46.027
		c-0.007,0.186-0.027,0.359-0.031,0.543c-0.121,4.23-0.101,9.027,0.363,14.07H258.333z M335.497,329.087
		c-14.414-0.004-26.141,11.727-26.141,26.14l0,0v51.332c-2.464,1.471-4.73,3.35-6.664,5.582h-52.359v-165.19h115.016v129.612
		c-1.238-0.313-2.512-0.537-3.816-0.668l0.008-11.512l0.008-7.547c0-1.293,0-2.234-0.008-2.967h0.008
		c0-6.994-3.188-13.705-8.746-18.418 M352.802,335.452c-4.836-4.107-10.98-6.365-17.305-6.365 M367.606,481.212
		c-49.449,0-56.046-25.07-55.286-52.082c0.184-6.514,5.785-10.359,10.364-10.359v11.945c0,1.504,1.043,1.68,1.351,1.68
		c0.309,0,1.32-0.172,1.32-1.676v-75.492c0-5.602,4.539-10.141,10.141-10.141c5.141,0,10.051,3.908,10.051,8.783
		c0.004,0.014-0.027,37.246-0.035,46.406c0,0.014-0.004,0.033-0.004,0.053v1.916c0,0.91,0.738,1.646,1.652,1.646
		c0.91,0,1.652-0.736,1.652-1.646v-0.498c0.09-5.523,4.594-9.977,10.141-9.977c5.602,0,10.145,4.543,10.145,10.145l0.004,7.348
		c0,0.9,0.73,1.625,1.629,1.625s1.625-0.725,1.625-1.625l-0.004-0.422c0-5.1,4.957-8.66,10.055-8.66
		c5.602,0,10.125,4.543,10.125,10.146l0.02,7.432c0,0.875,0.707,1.582,1.582,1.582s1.582-0.711,1.582-1.582l-0.004-0.564
		c0-4.639,5.02-8.193,9.953-8.193c5.602,0,10.145,4.539,10.145,10.141l0.031,18.639
		C415.841,455.106,409.103,481.212,367.606,481.212L367.606,481.212z M367.606,481.212"/>
</g>
</svg>
